<svg xmlns="http://www.w3.org/2000/svg" viewBox="0 0 1200 400" width="1200" height="400" role="img" aria-label="Shintenshin — a hand seal channels a conversation from one person to another">
  <defs>
    <radialGradient id="bg" cx="50%" cy="35%" r="75%">
      <stop offset="0%" stop-color="#161230"/>
      <stop offset="60%" stop-color="#0a0a12"/>
      <stop offset="100%" stop-color="#050509"/>
    </radialGradient>
    <linearGradient id="beam" x1="0%" y1="0%" x2="100%" y2="0%">
      <stop offset="0%" stop-color="#8b5cf6" stop-opacity="0"/>
      <stop offset="50%" stop-color="#c4b5fd" stop-opacity="0.95"/>
      <stop offset="100%" stop-color="#8b5cf6" stop-opacity="0"/>
    </linearGradient>
    <radialGradient id="glow" cx="50%" cy="50%" r="50%">
      <stop offset="0%" stop-color="#c4b5fd" stop-opacity="0.95"/>
      <stop offset="100%" stop-color="#8b5cf6" stop-opacity="0"/>
    </radialGradient>
    <filter id="blur1"><feGaussianBlur stdDeviation="8"/></filter>
    <filter id="blur2"><feGaussianBlur stdDeviation="3"/></filter>
    <linearGradient id="person" x1="0%" y1="0%" x2="0%" y2="100%">
      <stop offset="0%" stop-color="#241f3d"/>
      <stop offset="100%" stop-color="#0a0a12"/>
    </linearGradient>
  </defs>

  <rect width="1200" height="400" fill="url(#bg)"/>

  <text x="600" y="230" text-anchor="middle" font-family="serif" font-size="220"
        fill="#8b5cf6" opacity="0.055">心</text>

  <g fill="#c4b5fd" opacity="0.5">
    <circle cx="150" cy="80" r="2"/>
    <circle cx="220" cy="140" r="1.5"/>
    <circle cx="980" cy="100" r="2"/>
    <circle cx="1040" cy="170" r="1.5"/>
    <circle cx="600" cy="50" r="1.5"/>
  </g>

  <!-- transfer beam from sender to receiver -->
  <rect x="270" y="222" width="660" height="14" rx="7" fill="url(#beam)" filter="url(#blur1)"/>
  <rect x="270" y="226" width="660" height="6" rx="3" fill="url(#beam)"/>
  <g filter="url(#blur2)">
    <circle cx="380" cy="229" r="6" fill="#c4b5fd"/>
    <circle cx="600" cy="229" r="6" fill="#a78bfa"/>
    <circle cx="820" cy="229" r="6" fill="#c4b5fd"/>
  </g>

  <!-- sender: simple person silhouette (head + shoulders), casting the seal -->
  <g transform="translate(190,230)">
    <circle r="66" fill="url(#glow)" opacity="0.4" filter="url(#blur1)"/>
    <circle cx="0" cy="-58" r="34" fill="url(#person)" stroke="#8b5cf6" stroke-opacity="0.5" stroke-width="2"/>
    <path d="M-58,70 C-58,10 -34,-14 0,-14 C34,-14 58,10 58,70 Z"
          fill="url(#person)" stroke="#8b5cf6" stroke-opacity="0.5" stroke-width="2"/>
  </g>

  <!-- receiver: simple person silhouette -->
  <g transform="translate(1010,230)">
    <circle r="66" fill="url(#glow)" opacity="0.28" filter="url(#blur1)"/>
    <circle cx="0" cy="-58" r="34" fill="url(#person)" stroke="#8b5cf6" stroke-opacity="0.3" stroke-width="2"/>
    <path d="M-58,70 C-58,10 -34,-14 0,-14 C34,-14 58,10 58,70 Z"
          fill="url(#person)" stroke="#8b5cf6" stroke-opacity="0.3" stroke-width="2"/>
  </g>

  <!-- hand seal at the center of the beam: two crossed hands, fingers interlaced -->
  <g transform="translate(600,196)" filter="url(#blur2)" opacity="0.95">
    <g fill="none" stroke="#e9e4ff" stroke-width="4" stroke-linecap="round">
      <!-- left hand -->
      <path d="M-38,34 L-38,4 M-30,34 L-30,-2 M-22,34 L-22,-4 M-14,34 L-14,0"/>
      <path d="M-46,34 L-6,34" stroke-width="6"/>
      <!-- right hand, mirrored and offset to interlace -->
      <path d="M38,34 L38,4 M30,34 L30,-2 M22,34 L22,-4 M14,34 L14,0"/>
      <path d="M46,34 L6,34" stroke-width="6"/>
    </g>
    <circle r="46" fill="none" stroke="#c4b5fd" stroke-width="1.5" opacity="0.6"/>
  </g>

  <text x="600" y="380" text-anchor="middle" font-family="-apple-system,Segoe UI,Roboto,sans-serif"
        font-size="15" letter-spacing="3" fill="#9a97b8">SHINTENSHIN&#160;&#160;&#8226;&#160;&#160;CONTEXT TRANSFER JUTSU</text>
</svg>
